<?xml version="1.0" encoding="UTF-8" standalone="no"?>
<!DOCTYPE svg PUBLIC "-//W3C//DTD SVG 1.0//EN" "http://www.w3.org/TR/2001/REC-SVG-20010904/DTD/svg10.dtd">
<!-- Created with Inkscape (http://www.inkscape.org/) by Steadfast-->
<svg
   xmlns:svg="http://www.w3.org/2000/svg"
   xmlns="http://www.w3.org/2000/svg"
   version="1.0"
   width="900"
   height="230"
   id="svg2777">
  <defs
     id="defs2779" />
  <g
     id="layer1">
    <g
       transform="matrix(4.8888889,0,0,4.8888889,-1135.2661,-1459.3293)"
       id="g2824">
      <path
         d="M 286.62522,326.80654 C 285.23147,327.77904 283.57022,328.26654 281.54272,328.29279 C 279.22397,328.35404 277.14022,327.58779 275.67397,326.13654 C 274.31897,324.79279 273.61897,323.01154 273.65022,320.98154 C 273.67272,318.86529 274.47272,316.93779 275.90522,315.55029 C 277.32147,314.17654 279.27897,313.44279 281.41897,313.48529 C 283.02147,313.50779 284.02772,313.78029 285.40647,314.56279 L 286.07897,314.94279 L 286.07897,312.10529 L 285.79897,311.99154 C 284.24397,311.33654 283.18147,311.21279 281.38772,311.18654 C 278.29022,311.16029 275.49022,312.23654 273.50147,314.21529 C 271.71397,315.99779 270.73522,318.39779 270.74647,320.97654 C 270.75897,323.64529 271.79397,326.09279 273.66147,327.87154 C 275.68022,329.79404 278.49772,330.77779 281.59397,330.64279 L 281.84147,330.63529 C 283.43772,330.59154 284.49147,330.56279 286.07272,329.98904 L 286.26147,329.91779 L 287.86897,325.93654 L 286.62522,326.80654 z"
         id="path63"
         style="fill:#92002c;fill-opacity:1;fill-rule:nonzero;stroke:none" />
      <path
         d="M 297.35522,328.34279 C 295.24897,328.34279 293.58147,326.48154 293.56022,324.10654 C 293.54772,322.83154 294.04022,321.57904 294.87772,320.76029 C 295.56772,320.08029 296.43397,319.73529 297.38397,319.75904 C 299.47647,319.86279 301.18022,321.77904 301.18022,324.03529 L 301.17647,324.17154 C 301.13147,326.47279 299.41772,328.34279 297.35522,328.34279 M 302.07647,319.60529 C 300.86272,318.33779 299.22397,317.62029 297.46147,317.58154 L 297.46022,317.58154 C 295.72647,317.55654 294.01772,318.24529 292.77147,319.47404 C 291.53147,320.69529 290.85022,322.30779 290.85022,324.01529 C 290.85022,327.52404 293.72272,330.42154 297.25272,330.47279 C 299.01272,330.49904 300.67272,329.84279 301.92772,328.62404 C 303.15147,327.43654 303.83897,325.85279 303.86272,324.16654 C 303.90022,322.46779 303.26647,320.84654 302.07647,319.60529"
         id="path65"
         style="fill:#92002c;fill-opacity:1;fill-rule:nonzero;stroke:none" />
      <path
         d="M 334.48647,327.58404 C 333.76522,328.10404 332.43147,328.46779 331.09272,328.51154 C 329.91147,328.53154 328.80397,328.08779 327.97522,327.25904 C 327.13522,326.42154 326.68522,325.28904 326.70772,324.07029 C 326.70772,321.61279 328.55022,319.72904 330.99272,319.68654 C 332.06772,319.66654 333.22647,320.00904 333.94772,320.56029 L 334.66897,321.11029 L 334.66897,318.28404 L 334.39147,318.17029 C 333.15772,317.66779 332.29022,317.65279 331.08772,317.63029 L 330.97272,317.62779 C 328.97772,317.57529 327.15397,318.26529 325.83897,319.57154 C 324.66272,320.73904 324.02022,322.30904 324.02022,324.00529 C 324.02022,324.05279 324.02022,324.09904 324.02147,324.14779 C 324.04647,325.88779 324.72647,327.48154 325.94147,328.63404 C 327.25772,329.88154 329.09772,330.52779 331.12397,330.45029 L 331.52272,330.43654 C 332.62272,330.40154 333.49647,330.37529 334.65147,329.91154 L 334.74772,329.87404 L 334.88772,329.82154 L 335.37897,326.94279 L 334.48647,327.58404 z"
         id="path67"
         style="fill:#92002c;fill-opacity:1;fill-rule:nonzero;stroke:none" />
      <path
         d="M 345.85272,328.34279 C 343.74397,328.34279 342.07772,326.48154 342.05772,324.10654 C 342.04397,322.83154 342.53647,321.57904 343.37147,320.76029 C 344.06272,320.08029 344.93022,319.73529 345.87897,319.75904 C 348.01022,319.86404 349.67522,321.74154 349.67522,324.03529 L 349.67397,324.17529 C 349.62897,326.47279 347.91397,328.34279 345.85272,328.34279 M 350.57147,319.61654 C 349.34897,318.33904 347.71147,317.61654 345.95647,317.58154 C 344.22272,317.55654 342.51397,318.24529 341.26647,319.47404 C 340.02897,320.69404 339.34522,322.30654 339.34522,324.01529 C 339.34522,327.52404 342.21897,330.42154 345.74897,330.47279 C 347.51022,330.49904 349.16772,329.84279 350.42397,328.62404 C 351.64647,327.43654 352.33272,325.85279 352.35647,324.16654 C 352.35897,324.11904 352.35897,324.07029 352.35897,324.02279 C 352.35897,322.38154 351.72647,320.82029 350.57147,319.61654"
         id="path69"
         style="fill:#92002c;fill-opacity:1;fill-rule:nonzero;stroke:none" />
      <path
         d="M 405.50772,324.18279 L 405.50772,326.38029 C 405.50772,327.69029 404.10022,328.49154 402.74272,328.51154 C 402.07147,328.52279 401.42522,328.26404 401.01272,327.82029 C 400.71147,327.49654 400.56022,327.12404 400.56022,326.70904 L 400.56772,326.56904 C 400.62147,325.67029 401.26772,325.02779 402.29647,324.84529 L 404.49647,324.43654 C 404.51022,324.43279 405.11647,324.28029 405.50772,324.18279 M 408.73147,330.28654 L 408.37897,329.63904 C 408.23397,329.36654 408.17522,329.21029 408.11147,328.91654 C 408.02647,328.62779 408.00272,328.45904 408.00272,328.14029 L 408.00272,321.84279 C 408.00272,319.02529 406.42147,317.65529 403.02897,317.53279 L 403.02522,317.53279 C 401.76647,317.53279 400.54022,317.59779 399.28022,318.37154 L 399.06522,318.50154 L 399.06522,321.11529 L 399.80897,320.46904 C 400.45647,319.91029 401.48897,319.63779 402.96522,319.63779 C 404.36147,319.63779 405.41147,320.33654 405.41147,321.26404 C 405.41147,322.07779 404.99022,322.28404 404.05272,322.43654 C 404.04647,322.43779 403.83897,322.47279 401.63522,322.84904 C 399.21897,323.22029 398.15272,324.30029 398.07522,326.46154 C 398.07022,326.53654 398.07022,326.61154 398.07022,326.68654 C 398.07022,327.65654 398.40772,328.52029 399.05272,329.19404 C 399.86522,330.03779 401.10772,330.51404 402.46397,330.49904 C 403.38022,330.48279 404.43022,330.33529 405.45897,329.67529 L 405.45897,330.36279 L 408.73147,330.28654 z"
         id="path71"
         style="fill:#92002c;fill-opacity:1;fill-rule:nonzero;stroke:none" />
      <path
         d="M 316.71897,329.85654 L 316.10272,330.63279 L 320.49272,330.63279 L 319.92522,329.90529 C 319.77772,329.71279 319.72897,329.63404 319.69897,329.47154 C 319.57647,329.05154 319.56647,328.85279 319.56647,328.49029 L 319.56647,322.48279 C 319.56647,321.24279 319.05897,320.07654 318.13897,319.20154 C 317.14647,318.25154 315.75897,317.74404 314.33772,317.81154 C 313.07397,317.85154 312.13147,318.17404 311.28022,318.82029 C 311.28522,318.66779 311.29522,318.22029 311.29522,318.22029 L 311.02897,318.21904 L 308.16522,318.21904 L 308.57522,319.39029 L 308.58272,319.37154 C 308.59147,319.42529 308.59897,319.47779 308.61522,319.53279 L 308.69647,319.97404 L 308.69647,329.19029 C 308.69647,329.33154 308.68147,329.41404 308.63522,329.51904 L 308.45897,329.89529 L 308.24022,330.23529 L 307.98647,330.63279 L 312.00772,330.63279 L 311.44147,329.44654 C 311.33272,329.09529 311.31022,328.86154 311.31022,328.39404 L 311.31022,322.58029 C 311.31022,321.03779 312.39022,319.93154 313.93522,319.89154 C 314.84022,319.86779 315.76022,320.19904 316.33647,320.75904 C 316.73772,321.14654 316.94897,321.62529 316.94897,322.14404 L 316.94897,328.44404 L 316.96147,328.81279 L 316.95147,329.46029 C 316.93897,329.57529 316.88647,329.64779 316.71897,329.85654"
         id="path73"
         style="fill:#92002c;fill-opacity:1;fill-rule:nonzero;stroke:none" />
      <path
         d="M 364.15022,317.41654 C 363.22897,317.26029 362.44397,317.38279 361.68522,317.80654 C 361.35897,317.99654 361.10397,318.19029 360.88147,318.39404 L 360.88147,317.91654 L 357.23772,317.91654 L 357.74022,318.53154 C 357.94897,318.78654 358.05647,318.93654 358.14897,319.19404 C 358.25022,319.43654 358.26647,319.61654 358.26647,319.88779 L 358.26647,328.14029 L 358.27022,328.33404 C 358.27272,328.65279 358.27397,328.86404 358.19022,329.15029 C 358.16022,329.29029 358.11522,329.36279 358.02147,329.50779 L 357.49272,330.36154 L 358.31022,330.35279 L 361.91022,330.35279 L 361.46147,329.65904 C 361.27022,329.36029 361.19022,329.18404 361.11022,328.87279 C 360.99272,328.45904 360.95272,328.23779 360.95272,327.80404 L 360.95272,322.66279 C 360.95272,321.52529 361.46147,320.47029 362.22022,320.03904 C 362.80522,319.71904 363.27272,319.67529 363.94022,319.88529 L 364.52647,320.06404 L 364.52647,317.48779 L 364.15022,317.41654 z"
         id="path75"
         style="fill:#92002c;fill-opacity:1;fill-rule:nonzero;stroke:none" />
      <path
         d="M 388.41022,329.62404 L 387.87147,330.37779 L 391.91397,330.37779 L 391.44397,329.56154 L 391.29397,329.22529 C 391.24772,329.06404 391.24772,328.97904 391.24772,328.72029 L 391.24772,317.91654 L 387.72647,317.91654 L 388.26022,318.44654 C 388.38397,318.57029 388.45022,318.66779 388.53147,318.84404 C 388.58397,318.98029 388.59022,319.09654 388.59022,319.26904 L 388.58772,319.50279 L 388.58772,328.76779 L 388.59022,328.94904 L 388.56397,329.36529 C 388.54772,329.43279 388.50647,329.49154 388.41022,329.62404 M 391.22522,312.89779 L 388.24897,312.89779 L 388.24897,315.97154 L 391.22522,315.97154 L 391.22522,312.89779 z"
         id="path77"
         style="fill:#92002c;fill-opacity:1;fill-rule:nonzero;stroke:none" />
      <path
         d="M 377.88897,322.59154 L 377.88897,325.34154 C 377.88897,326.30404 377.59397,327.09154 377.03272,327.61904 C 376.49272,328.12779 375.73397,328.36904 374.83897,328.31904 C 373.95647,328.27779 373.17522,327.88654 372.57647,327.18654 C 371.77397,326.25029 371.38147,324.88529 371.52272,323.53154 C 371.71272,321.85529 372.44272,319.83029 374.86272,319.71154 C 375.71647,319.67779 376.49772,319.95529 377.05522,320.49529 C 377.60147,321.01779 377.88897,321.74279 377.88897,322.59154 M 381.42647,330.35279 L 380.84022,329.47779 C 380.73022,329.31654 380.68647,329.24654 380.66522,329.13029 C 380.52897,328.17779 380.52897,327.62279 380.52897,326.62154 L 380.52897,311.50029 L 376.94772,311.50029 L 377.56897,312.23404 C 377.56897,312.23654 377.70897,312.43654 377.74147,312.48404 L 377.74647,312.51154 L 377.81647,312.84404 C 377.81647,312.84404 377.80272,316.95779 377.79647,318.40404 C 376.82772,317.71654 375.85147,317.42279 374.62397,317.48404 C 371.04397,317.61779 368.95147,319.96029 368.89022,323.91154 C 368.87397,325.92529 369.62272,327.85779 370.89397,329.07904 C 371.96897,330.11154 373.35772,330.61904 374.91147,330.54654 C 376.05272,330.50654 376.92897,330.23654 377.81647,329.67779 L 377.81647,330.35279 L 381.42647,330.35279 z"
         id="path79"
         style="fill:#92002c;fill-opacity:1;fill-rule:nonzero;stroke:none" />
      <path
         d="M 293.63397,303.99654 L 293.63397,306.36779 C 293.63397,307.75279 292.69022,308.23029 291.54397,308.23029 C 290.33147,308.23029 289.45397,307.66654 289.45397,306.37404 L 289.45397,303.99654 L 290.49647,303.99654 L 290.49647,306.39779 C 290.49647,306.99904 290.93147,307.36029 291.53147,307.36029 C 292.08397,307.36029 292.59147,307.07279 292.59147,306.32529 L 292.59147,303.99654 L 293.63397,303.99654 z"
         id="path81"
         style="fill:#b18c61;fill-opacity:1;fill-rule:nonzero;stroke:none" />
      <path
         d="M 303.73272,308.17529 L 302.85647,308.17529 L 300.54647,305.49779 L 300.54647,308.17529 L 299.50397,308.17529 L 299.50397,303.99654 L 300.46022,303.99654 L 302.69022,306.55154 L 302.69022,303.99654 L 303.73272,303.99654 L 303.73272,308.17529 z"
         id="path83"
         style="fill:#b18c61;fill-opacity:1;fill-rule:nonzero;stroke:none" />
      <path
         d="M 310.71147,308.17529 L 309.67022,308.17529 L 309.67022,303.99654 L 310.71147,303.99654 L 310.71147,308.17529 z"
         id="path85"
         style="fill:#b18c61;fill-opacity:1;fill-rule:nonzero;stroke:none" />
      <path
         d="M 318.64647,308.23029 L 318.19272,308.23029 L 316.17147,303.99654 L 317.30522,303.99654 L 318.40772,306.38029 L 319.45522,303.99654 L 320.57647,303.99654 L 318.64647,308.23029 z"
         id="path87"
         style="fill:#b18c61;fill-opacity:1;fill-rule:nonzero;stroke:none" />
      <path
         d="M 329.10022,308.17529 L 326.01772,308.17529 L 326.01772,303.99654 L 329.05772,303.99654 L 329.05772,304.76154 L 327.06022,304.76154 L 327.06022,305.63904 L 328.96522,305.63904 L 328.96522,306.40404 L 327.06022,306.40404 L 327.06022,307.41029 L 329.10022,307.41029 L 329.10022,308.17529 z"
         id="path89"
         style="fill:#b18c61;fill-opacity:1;fill-rule:nonzero;stroke:none" />
      <path
         d="M 335.90147,305.71279 L 336.45272,305.71279 C 336.74147,305.71279 337.02272,305.59029 337.02272,305.23404 C 337.02272,304.92154 336.82147,304.76154 336.42897,304.76154 L 335.90147,304.76154 L 335.90147,305.71279 z M 336.72897,303.99654 C 337.58647,303.99654 338.09522,304.57279 338.09522,305.19779 C 338.09522,305.65654 337.85647,306.00029 337.37897,306.22029 C 337.80772,306.43529 337.93647,306.95029 338.52397,308.17529 L 337.37897,308.17529 C 336.93022,307.28029 336.76522,306.47779 336.20147,306.47779 L 335.90147,306.47779 L 335.90147,308.17529 L 334.85897,308.17529 L 334.85897,303.99654 L 336.72897,303.99654 z"
         id="path91"
         style="fill:#b18c61;fill-opacity:1;fill-rule:nonzero;stroke:none" />
      <path
         d="M 346.77772,305.08029 C 346.17147,304.81154 345.81022,304.70779 345.45522,304.70779 C 345.08147,304.70779 344.84147,304.84154 344.84147,305.05029 C 344.84147,305.68154 346.96772,305.50404 346.96772,306.96154 C 346.96772,307.76529 346.29397,308.23029 345.36147,308.23029 C 344.63272,308.23029 344.27147,308.04029 343.85522,307.82654 L 343.85522,306.92529 C 344.45522,307.32404 344.82272,307.46404 345.28272,307.46404 C 345.68147,307.46404 345.89522,307.32404 345.89522,307.07779 C 345.89522,306.39279 343.76897,306.64404 343.76897,305.14154 C 343.76897,304.41904 344.39397,303.94154 345.36147,303.94154 C 345.82772,303.94154 346.25147,304.03904 346.77772,304.26654 L 346.77772,305.08029 z"
         id="path93"
         style="fill:#b18c61;fill-opacity:1;fill-rule:nonzero;stroke:none" />
      <path
         d="M 353.71397,308.17529 L 352.67272,308.17529 L 352.67272,303.99654 L 353.71397,303.99654 L 353.71397,308.17529 z"
         id="path95"
         style="fill:#b18c61;fill-opacity:1;fill-rule:nonzero;stroke:none" />
      <path
         d="M 363.41397,304.76154 L 361.90147,304.76154 L 361.90147,308.17529 L 360.85897,308.17529 L 360.85897,304.76154 L 359.34522,304.76154 L 359.34522,303.99654 L 363.41397,303.99654 L 363.41397,304.76154 z"
         id="path97"
         style="fill:#b18c61;fill-opacity:1;fill-rule:nonzero;stroke:none" />
      <path
         d="M 370.45522,303.59154 L 370.00147,303.59154 L 370.45522,302.69779 L 371.46647,302.69779 L 370.45522,303.59154 z M 372.10272,308.17529 L 369.02022,308.17529 L 369.02022,303.99654 L 372.06022,303.99654 L 372.06022,304.76154 L 370.06272,304.76154 L 370.06272,305.63904 L 371.96897,305.63904 L 371.96897,306.40404 L 370.06272,306.40404 L 370.06272,307.41029 L 372.10272,307.41029 L 372.10272,308.17529 z"
         id="path99"
         style="fill:#b18c61;fill-opacity:1;fill-rule:nonzero;stroke:none" />
      <path
         d="M 335.01272,339.14779 L 335.01272,341.51904 C 335.01272,342.90404 334.06772,343.38154 332.92147,343.38154 C 331.70897,343.38154 330.83272,342.81904 330.83272,341.52529 L 330.83272,339.14779 L 331.87397,339.14779 L 331.87397,341.55029 C 331.87397,342.15029 332.30897,342.51279 332.90897,342.51279 C 333.46147,342.51279 333.97022,342.22404 333.97022,341.47654 L 333.97022,339.14779 L 335.01272,339.14779 z"
         id="path101"
         style="fill:#b18c61;fill-opacity:1;fill-rule:nonzero;stroke:none" />
      <path
         d="M 345.11022,343.32654 L 344.23272,343.32654 L 341.92397,340.64904 L 341.92397,343.32654 L 340.88272,343.32654 L 340.88272,339.14779 L 341.83772,339.14779 L 344.06772,341.70279 L 344.06772,339.14779 L 345.11022,339.14779 L 345.11022,343.32654 z"
         id="path103"
         style="fill:#b18c61;fill-opacity:1;fill-rule:nonzero;stroke:none" />
      <path
         d="M 352.08897,343.32654 L 351.04647,343.32654 L 351.04647,339.14779 L 352.08897,339.14779 L 352.08897,343.32654 z"
         id="path105"
         style="fill:#b18c61;fill-opacity:1;fill-rule:nonzero;stroke:none" />
      <path
         d="M 360.02397,343.38154 L 359.57147,343.38154 L 357.54897,339.14779 L 358.68272,339.14779 L 359.78522,341.53154 L 360.83397,339.14779 L 361.95522,339.14779 L 360.02397,343.38154 z"
         id="path107"
         style="fill:#b18c61;fill-opacity:1;fill-rule:nonzero;stroke:none" />
      <path
         d="M 370.47772,343.32654 L 367.39647,343.32654 L 367.39647,339.14779 L 370.43522,339.14779 L 370.43522,339.91404 L 368.43772,339.91404 L 368.43772,340.79029 L 370.34272,340.79029 L 370.34272,341.55654 L 368.43772,341.55654 L 368.43772,342.56154 L 370.47772,342.56154 L 370.47772,343.32654 z"
         id="path109"
         style="fill:#b18c61;fill-opacity:1;fill-rule:nonzero;stroke:none" />
      <path
         d="M 377.27897,340.86404 L 377.83147,340.86404 C 378.11897,340.86404 378.40022,340.74154 378.40022,340.38529 C 378.40022,340.07404 378.19897,339.91404 377.80647,339.91404 L 377.27897,339.91404 L 377.27897,340.86404 z M 378.10647,339.14779 C 378.96397,339.14779 379.47397,339.72404 379.47397,340.34904 C 379.47397,340.80904 379.23397,341.15154 378.75647,341.37279 C 379.18522,341.58654 379.31397,342.10154 379.90147,343.32654 L 378.75647,343.32654 C 378.30897,342.43279 378.14397,341.63029 377.58022,341.63029 L 377.27897,341.63029 L 377.27897,343.32654 L 376.23772,343.32654 L 376.23772,339.14779 L 378.10647,339.14779 z"
         id="path111"
         style="fill:#b18c61;fill-opacity:1;fill-rule:nonzero;stroke:none" />
      <path
         d="M 388.15522,340.23279 C 387.55022,339.96279 387.18772,339.85904 386.83272,339.85904 C 386.45897,339.85904 386.21897,339.99404 386.21897,340.20154 C 386.21897,340.83279 388.34522,340.65529 388.34522,342.11404 C 388.34522,342.91654 387.67272,343.38154 386.74022,343.38154 C 386.01147,343.38154 385.64897,343.19279 385.23272,342.97779 L 385.23272,342.07779 C 385.83272,342.47529 386.20147,342.61654 386.66147,342.61654 C 387.05897,342.61654 387.27272,342.47529 387.27272,342.23029 C 387.27272,341.54404 385.14647,341.79529 385.14647,340.29404 C 385.14647,339.57029 385.77147,339.09279 386.74022,339.09279 C 387.20647,339.09279 387.62897,339.19154 388.15522,339.41779 L 388.15522,340.23279 z"
         id="path113"
         style="fill:#b18c61;fill-opacity:1;fill-rule:nonzero;stroke:none" />
      <path
         d="M 395.09147,343.32654 L 394.05022,343.32654 L 394.05022,339.14779 L 395.09147,339.14779 L 395.09147,343.32654 z"
         id="path115"
         style="fill:#b18c61;fill-opacity:1;fill-rule:nonzero;stroke:none" />
      <path
         d="M 404.79147,339.91404 L 403.27897,339.91404 L 403.27897,343.32654 L 402.23647,343.32654 L 402.23647,339.91404 L 400.72397,339.91404 L 400.72397,339.14779 L 404.79147,339.14779 L 404.79147,339.91404 z"
         id="path117"
         style="fill:#b18c61;fill-opacity:1;fill-rule:nonzero;stroke:none" />
      <path
         d="M 411.56897,341.37279 L 409.92022,339.14779 L 411.18397,339.14779 L 412.09022,340.45904 L 413.00272,339.14779 L 414.25897,339.14779 L 412.61147,341.37279 L 412.61147,343.32654 L 411.56897,343.32654 L 411.56897,341.37279 z"
         id="path119"
         style="fill:#b18c61;fill-opacity:1;fill-rule:nonzero;stroke:none" />
      <path
         d="M 252.01022,318.71779 L 264.73897,312.71404 L 264.16897,315.79029 L 264.33522,316.16154 L 269.21397,308.07779 L 234.25897,308.07779 L 239.16022,316.30154 L 252.01022,318.71779 z"
         id="path121"
         style="fill:#cfb495;fill-opacity:1;fill-rule:nonzero;stroke:none" />
      <path
         d="M 251.85272,318.83029 L 238.91772,316.39529 L 238.74772,315.60904 L 239.16022,316.30154 L 252.01022,318.71779 L 254.32772,317.62404 L 251.85272,318.83029 z"
         id="path123"
         style="fill:#ffffff;fill-opacity:1;fill-rule:nonzero;stroke:none" />
      <path
         d="M 252.01022,318.71779 L 239.16022,316.30154 L 238.74772,315.60904 L 237.89522,311.67404 C 238.51397,312.15404 245.26272,314.50279 246.64272,314.93779 L 246.65647,314.94279 C 245.74647,313.47154 244.31147,312.07279 242.97147,310.69654 C 243.92147,311.67404 245.63022,312.63779 246.97897,313.49404 C 247.48647,313.81279 248.01022,314.13154 248.57147,314.43529 C 248.51272,312.88404 247.75522,311.31029 247.18522,309.82279 C 247.62022,310.96529 248.85397,312.20279 249.79522,313.27029 C 250.06397,313.57029 250.34147,313.87029 250.65647,314.17154 C 251.41397,312.66904 251.68772,311.04654 251.70897,309.53529 C 251.68772,310.94279 251.98272,312.70029 252.76272,314.16279 C 253.14897,313.79904 253.48897,313.42279 253.81272,313.04529 C 254.66897,312.04154 255.82147,310.89404 256.22897,309.82279 C 255.64647,311.35529 254.97397,312.91154 254.87522,314.47154 C 257.05897,313.36029 258.77522,311.91654 260.44397,310.69654 C 259.08522,311.68779 258.15647,313.04529 257.29647,314.17154 C 257.10397,314.42279 256.91522,314.67779 256.74897,314.94279 L 256.78897,314.93404 C 258.17522,314.49404 264.81522,312.51654 264.81522,312.51654 L 254.32772,317.62404 L 252.01022,318.71779"
         id="path133"
         style="fill:#ffffff;fill-opacity:1;fill-rule:nonzero;stroke:none" />
      <path
         d="M 251.47022,300.81404 C 241.17897,300.07904 235.45147,301.89404 234.38772,302.09279 L 234.38772,304.98154 C 237.39772,304.30779 242.72272,303.39529 250.29272,303.14279 L 250.28647,303.14279 L 250.30522,303.14029 L 250.29272,303.14279 C 260.68272,302.94029 267.05772,304.15904 268.86147,304.59904 L 268.86147,304.60404 C 268.86147,304.60404 262.88272,301.82279 251.47022,300.81404"
         id="path135"
         style="fill:#92002c;fill-opacity:1;fill-rule:nonzero;stroke:none" />
      <path
         d="M 264.88647,329.11029 C 260.46522,334.47279 254.35772,338.31779 251.87772,339.43154 C 248.12272,337.70154 239.14897,331.53779 235.11522,319.56279 C 235.02147,319.22779 234.93272,318.89154 234.84647,318.54904 C 234.90397,318.99279 234.96272,319.43404 235.02647,319.87029 L 235.02147,319.84654 C 235.17272,320.60529 235.33022,321.35904 235.51272,322.09779 C 239.26772,334.90904 248.40897,341.57029 251.86397,343.40404 C 254.52147,341.99529 260.54022,336.83529 264.88647,329.11029"
         id="path137"
         style="fill:#92002c;fill-opacity:1;fill-rule:nonzero;stroke:none" />
      <path
         d="M 238.48897,312.46029 L 240.40272,323.90029 C 240.40272,323.90029 244.93522,330.70029 251.37772,334.33404 L 251.38397,319.18404 L 238.48897,312.46029 z"
         id="path139"
         style="fill:#b18c61;fill-opacity:1;fill-rule:nonzero;stroke:none" />
      <path
         d="M 252.38272,318.78154 L 252.38272,334.33029 C 252.51647,334.25529 252.65147,334.17654 252.78522,334.10029 C 252.89772,334.03279 253.00772,333.96779 253.12022,333.90279 L 253.12022,318.60654 L 252.38272,318.78154 z"
         id="path141"
         style="fill:#b18c61;fill-opacity:1;fill-rule:nonzero;stroke:none" />
      <path
         d="M 265.59897,311.89779 C 265.59897,311.89779 255.01397,317.40154 251.80397,317.68654 C 248.22022,317.33404 238.49022,312.46029 238.49022,312.46029 C 244.77022,317.68904 251.62522,319.30529 251.90522,319.39029 L 251.90147,319.38529 C 251.90147,319.38529 257.07772,318.37404 264.19147,313.29654 C 264.12522,314.39529 263.79897,317.66029 263.20772,321.34904 L 265.59897,311.89779 z"
         id="path143"
         style="fill:#92002c;fill-opacity:1;fill-rule:nonzero;stroke:none" />
    </g>
  </g>
</svg>
